<?xml version="1.0" standalone="no"?>
<!DOCTYPE svg PUBLIC "-//W3C//DTD SVG 20010904//EN"
 "http://www.w3.org/TR/2001/REC-SVG-20010904/DTD/svg10.dtd">
<svg version="1.0" xmlns="http://www.w3.org/2000/svg"
 width="500.000000pt" height="500.000000pt" viewBox="0 0 500.000000 500.000000"
 preserveAspectRatio="xMidYMid meet">
<metadata>
Created by potrace 1.14, written by Peter Selinger 2001-2017
</metadata>
<g transform="translate(0.000000,500.000000) scale(0.100000,-0.100000)"
fill="#000000" stroke="none">
<path d="M70 2500 l0 -2500 2465 0 2465 0 0 2500 0 2500 -2465 0 -2465 0 0
-2500z m3127 1803 c59 -47 87 -113 87 -203 0 -41 -6 -94 -13 -117 -31 -111
-138 -184 -297 -205 -144 -18 -172 -12 -674 164 -131 45 -215 58 -244 35 -16
-12 -19 -25 -17 -84 2 -63 -1 -74 -24 -101 -84 -99 -247 -36 -290 113 -30 102
-9 224 51 293 66 77 172 113 343 115 127 1 156 -6 442 -114 233 -87 274 -100
330 -101 61 -1 78 21 72 90 -3 31 0 69 6 84 28 74 155 91 228 31z m-54 -827
c52 -22 89 -68 94 -120 5 -43 -18 -94 -592 -1273 -329 -675 -606 -1240 -617
-1255 -10 -14 -39 -34 -63 -44 -58 -22 -110 -8 -159 40 -47 48 -53 91 -23 163
41 98 1176 2414 1199 2446 37 51 101 69 161 43z m-1705 -858 c79 -49 117 -164
72 -221 -11 -14 -196 -128 -410 -253 -215 -124 -390 -229 -390 -233 1 -3 176
-111 391 -239 414 -248 429 -259 429 -331 0 -43 -31 -109 -68 -144 -44 -42
-89 -45 -159 -10 -54 28 -907 523 -1001 581 -80 50 -106 165 -54 239 14 20
172 116 509 308 268 154 508 290 533 302 57 28 103 29 148 1z m2281 -17 c154
-81 1008 -592 1024 -613 44 -58 38 -165 -11 -210 -32 -29 -971 -571 -1043
-601 -41 -18 -53 -19 -87 -9 -49 15 -109 75 -123 123 -16 51 -4 103 29 131 15
13 200 122 410 243 291 167 379 222 369 231 -6 6 -185 114 -395 239 -230 137
-390 239 -400 254 -27 41 -22 121 11 170 58 87 111 97 216 42z"/>
</g>
</svg>
